# xmcd
#
# Track frame offsets: 
#        150
#        11815
#        21345
#        31007
#        40965
#        50706
#        60425
#        71940
#        83375
#        95622
#        107529
#        118728
#        129562
#        141399
#        151841
#        162804
#        176495
#        188027
#        198317
#        208300
#
# Disc length: 2938 seconds
#
# Revision: 1
# Processed by: cddbd v1.5.2PL0 Copyright (c) Steve Scherf et al.
# Submitted via: ExactAudioCopyFreeDBPlugin 1.0
#
DISCID=150b7814
DTITLE=George Jones - The Absolutely Essential 3 CD Collection [CD 2)
DYEAR=2013
DGENRE=Country
TTITLE0=Heartaches By The Number
TTITLE1=Did I Ever Tell You
TTITLE2=If You've Got The Money (I've Got The Time)
TTITLE3=I'm With The Wrong One
TTITLE4=Too Much Water
TTITLE5=Sweet Dreams
TTITLE6=Just One More
TTITLE7=What Am I Worth
TTITLE8=Heartbroken Me
TTITLE9=Play It Cool
TTITLE10=Gonna Come Get You
TTITLE11=I Gotta Talk To Your Heart
TTITLE12=Money To Burn
TTITLE13=Hey Good Lookin'
TTITLE14=Accidentally On Purpose
TTITLE15=Family Bible
TTITLE16=Sparkling Brown Eyes
TTITLE17=Don't Do This To Me
TTITLE18=Settin' The Woods On Fire
TTITLE19=A Girl I Used To Know
EXTD=
EXTT0=
EXTT1=
EXTT2=
EXTT3=
EXTT4=
EXTT5=
EXTT6=
EXTT7=
EXTT8=
EXTT9=
EXTT10=
EXTT11=
EXTT12=
EXTT13=
EXTT14=
EXTT15=
EXTT16=
EXTT17=
EXTT18=
EXTT19=
PLAYORDER=
